#define close_width 12
#define close_height 12
static unsigned char close_bits[] = {
   0x00, 0x00, 0x80, 0x02, 0x3e, 0x01, 0x82, 0x02, 0x02, 0x00, 0x02, 0x01,
   0x02, 0x01, 0x02, 0x01, 0xfe, 0x01, 0x00, 0x00, 0x00, 0x00, 0x00, 0x00 };
