#define close_width 14
#define close_height 14
static unsigned char close_bits[] = {
   0xe0, 0x01, 0xf8, 0x07, 0xfc, 0x0f, 0xfe, 0x1f, 0xce, 0x1c, 0x0f, 0x3c,
   0x1f, 0x3e, 0x1f, 0x3e, 0x0f, 0x3c, 0xce, 0x1c, 0xfe, 0x1f, 0xfc, 0x0f,
   0xf8, 0x07, 0xe0, 0x01 };
