#define close_width 14
#define close_height 14
static unsigned char close_bits[] = {
   0xf0, 0x03, 0xfc, 0x0f, 0xfe, 0x1f, 0xfe, 0x1f, 0xef, 0x3d, 0xdf, 0x3e,
   0x3f, 0x3f, 0x3f, 0x3f, 0xdf, 0x3e, 0xef, 0x3d, 0xfe, 0x1f, 0xfe, 0x1f,
   0xfc, 0x0f, 0xf0, 0x03 };
