#define desk_width 14
#define desk_height 14
static unsigned char desk_bits[] = {
   0x00, 0x00, 0x00, 0x00, 0x34, 0x00, 0x78, 0x00, 0xfc, 0x00, 0xfc, 0x00,
   0x78, 0x00, 0xb0, 0x00, 0x00, 0x01, 0x00, 0x0a, 0x00, 0x0c, 0x00, 0x0e,
   0x00, 0x00, 0x00, 0x00 };
