#define max_width 14
#define max_height 14
static unsigned char max_bits[] = {
   0x00, 0x00, 0x00, 0x00, 0xfc, 0x0f, 0x04, 0x08, 0x04, 0x08, 0x04, 0x08,
   0x04, 0x08, 0x04, 0x08, 0x04, 0x08, 0x04, 0x08, 0x04, 0x08, 0xfc, 0x0f,
   0x00, 0x00, 0x00, 0x00 };
