#define max_toggled_width 14
#define max_toggled_height 14
static unsigned char max_toggled_bits[] = {
   0x00, 0x00, 0x00, 0x00, 0xf0, 0x0f, 0x00, 0x08, 0xfc, 0x0b, 0x04, 0x0a,
   0x04, 0x0a, 0x04, 0x0a, 0x04, 0x0a, 0x04, 0x0a, 0x04, 0x02, 0xfc, 0x03,
   0x00, 0x00, 0x00, 0x00 };
