#define shade_width 14
#define shade_height 14
static unsigned char shade_bits[] = {
   0x00, 0x00, 0x00, 0x00, 0xfc, 0x0f, 0xfc, 0x0f, 0xfc, 0x0f, 0xfc, 0x0f,
   0x00, 0x00, 0xfc, 0x0f, 0xfc, 0x0f, 0x00, 0x00, 0xfc, 0x0f, 0x00, 0x00,
   0x00, 0x00, 0x00, 0x00 };
