#define desk_width 14
#define desk_height 14
static unsigned char desk_bits[] = {
   0x00, 0x00, 0x00, 0x00, 0x00, 0x00, 0x38, 0x07, 0x38, 0x07, 0x38, 0x07,
   0x00, 0x00, 0x00, 0x00, 0x38, 0x07, 0x38, 0x07, 0x38, 0x07, 0x00, 0x00,
   0x00, 0x00, 0x00, 0x00 };
