#define desk_toggled_width 14
#define desk_toggled_height 14
static unsigned char desk_toggled_bits[] = {
   0x00, 0x00, 0x00, 0x00, 0x00, 0x00, 0x20, 0x00, 0x70, 0x00, 0xf8, 0x01,
   0xf0, 0x00, 0xe0, 0x00, 0x20, 0x01, 0x00, 0x02, 0x00, 0x04, 0x00, 0x00,
   0x00, 0x00, 0x00, 0x00 };
