#define max_toggled_width 14
#define max_toggled_height 14
static unsigned char max_toggled_bits[] = {
   0x00, 0x00, 0x00, 0x00, 0x00, 0x00, 0xf8, 0x07, 0xf8, 0x07, 0x18, 0x06,
   0x18, 0x06, 0x18, 0x06, 0x18, 0x06, 0xf8, 0x07, 0xf8, 0x07, 0x00, 0x00,
   0x00, 0x00, 0x00, 0x00 };
