#define shade_toggled_width 14
#define shade_toggled_height 14
static unsigned char shade_toggled_bits[] = {
   0x00, 0x00, 0x00, 0x00, 0x00, 0x00, 0xc0, 0x00, 0xc0, 0x00, 0xc0, 0x00,
   0xd8, 0x06, 0xf8, 0x07, 0xf0, 0x03, 0xe0, 0x01, 0xc0, 0x00, 0x00, 0x00,
   0x00, 0x00, 0x00, 0x00 };
