#define desk_toggled_width 16
#define desk_toggled_height 16
static unsigned char desk_toggled_bits[] = {
   0x00, 0x00, 0x00, 0x00, 0x00, 0x00, 0x00, 0x00, 0x00, 0x00, 0x60, 0x06,
   0x60, 0x06, 0x80, 0x01, 0x80, 0x01, 0x60, 0x06, 0x60, 0x06, 0x00, 0x00,
   0x00, 0x00, 0x00, 0x00, 0x00, 0x00, 0x00, 0x00 };
