#define max_disabled_width 16
#define max_disabled_height 16
static unsigned char max_disabled_bits[] = {
   0x00, 0x00, 0x00, 0x00, 0x00, 0x00, 0x00, 0x00, 0x00, 0x00, 0x00, 0x07,
   0x00, 0x06, 0x00, 0x05, 0xa0, 0x00, 0x60, 0x00, 0xe0, 0x00, 0x00, 0x00,
   0x00, 0x00, 0x00, 0x00, 0x00, 0x00, 0x00, 0x00 };
